<mxfile host="app.diagrams.net" modified="2022-06-22T23:43:20.032Z" agent="5.0 (Windows NT 10.0; Win64; x64) AppleWebKit/537.36 (KHTML, like Gecko) Chrome/102.0.0.0 Safari/537.36" etag="NZ4vXl-rS1JdoY6zgoQb" version="20.0.3" type="github">
  <diagram id="7pocUT5MUp2oBHkSsCW3" name="Page-1">
    <mxGraphModel dx="981" dy="574" grid="1" gridSize="10" guides="1" tooltips="1" connect="1" arrows="1" fold="1" page="1" pageScale="1" pageWidth="850" pageHeight="1100" math="0" shadow="0">
      <root>
        <mxCell id="0" />
        <mxCell id="1" parent="0" />
        <mxCell id="Txm0cbsWEI-OotQcj3cM-30" style="edgeStyle=orthogonalEdgeStyle;rounded=0;orthogonalLoop=1;jettySize=auto;html=1;fontSize=10;" edge="1" parent="1" source="Txm0cbsWEI-OotQcj3cM-1" target="Txm0cbsWEI-OotQcj3cM-4">
          <mxGeometry relative="1" as="geometry" />
        </mxCell>
        <mxCell id="Txm0cbsWEI-OotQcj3cM-1" value="Razael&#39;s Cell" style="ellipse;whiteSpace=wrap;html=1;aspect=fixed;" vertex="1" parent="1">
          <mxGeometry x="370" y="50" width="80" height="80" as="geometry" />
        </mxCell>
        <mxCell id="Txm0cbsWEI-OotQcj3cM-17" style="edgeStyle=orthogonalEdgeStyle;rounded=0;orthogonalLoop=1;jettySize=auto;html=1;fontSize=10;entryX=0.5;entryY=0;entryDx=0;entryDy=0;" edge="1" parent="1" source="Txm0cbsWEI-OotQcj3cM-4" target="Txm0cbsWEI-OotQcj3cM-19">
          <mxGeometry relative="1" as="geometry">
            <mxPoint x="410" y="265" as="targetPoint" />
            <Array as="points" />
          </mxGeometry>
        </mxCell>
        <mxCell id="Txm0cbsWEI-OotQcj3cM-4" value="&lt;span style=&quot;color: rgb(0, 0, 0); font-family: Helvetica; font-size: 12px; font-style: normal; font-variant-ligatures: normal; font-variant-caps: normal; font-weight: 400; letter-spacing: normal; orphans: 2; text-align: center; text-indent: 0px; text-transform: none; widows: 2; word-spacing: 0px; -webkit-text-stroke-width: 0px; background-color: rgb(248, 249, 250); text-decoration-thickness: initial; text-decoration-style: initial; text-decoration-color: initial; float: none; display: inline !important;&quot;&gt;Sealed Door&lt;/span&gt;" style="rounded=0;whiteSpace=wrap;html=1;" vertex="1" parent="1">
          <mxGeometry x="350" y="150" width="120" height="20" as="geometry" />
        </mxCell>
        <mxCell id="Txm0cbsWEI-OotQcj3cM-29" style="edgeStyle=orthogonalEdgeStyle;rounded=0;orthogonalLoop=1;jettySize=auto;html=1;fontSize=10;" edge="1" parent="1" source="Txm0cbsWEI-OotQcj3cM-7" target="Txm0cbsWEI-OotQcj3cM-28">
          <mxGeometry relative="1" as="geometry" />
        </mxCell>
        <mxCell id="Txm0cbsWEI-OotQcj3cM-7" value="&lt;span style=&quot;color: rgb(0, 0, 0); font-family: Helvetica; font-size: 12px; font-style: normal; font-variant-ligatures: normal; font-variant-caps: normal; font-weight: 400; letter-spacing: normal; orphans: 2; text-align: center; text-indent: 0px; text-transform: none; widows: 2; word-spacing: 0px; -webkit-text-stroke-width: 0px; background-color: rgb(248, 249, 250); text-decoration-thickness: initial; text-decoration-style: initial; text-decoration-color: initial; float: none; display: inline !important;&quot;&gt;Crewman at railing&lt;/span&gt;" style="rounded=0;whiteSpace=wrap;html=1;" vertex="1" parent="1">
          <mxGeometry x="350" y="320" width="120" height="30" as="geometry" />
        </mxCell>
        <mxCell id="Txm0cbsWEI-OotQcj3cM-8" value="&lt;span style=&quot;color: rgb(0, 0, 0); font-family: Helvetica; font-size: 12px; font-style: normal; font-variant-ligatures: normal; font-variant-caps: normal; font-weight: 400; letter-spacing: normal; orphans: 2; text-align: center; text-indent: 0px; text-transform: none; widows: 2; word-spacing: 0px; -webkit-text-stroke-width: 0px; background-color: rgb(248, 249, 250); text-decoration-thickness: initial; text-decoration-style: initial; text-decoration-color: initial; float: none; display: inline !important;&quot;&gt;Player&#39;s Room&lt;/span&gt;" style="rounded=0;whiteSpace=wrap;html=1;" vertex="1" parent="1">
          <mxGeometry x="620" y="260" width="120" height="20" as="geometry" />
        </mxCell>
        <mxCell id="Txm0cbsWEI-OotQcj3cM-10" value="&lt;span style=&quot;color: rgb(0, 0, 0); font-family: Helvetica; font-size: 12px; font-style: normal; font-variant-ligatures: normal; font-variant-caps: normal; font-weight: 400; letter-spacing: normal; orphans: 2; text-align: center; text-indent: 0px; text-transform: none; widows: 2; word-spacing: 0px; -webkit-text-stroke-width: 0px; background-color: rgb(248, 249, 250); text-decoration-thickness: initial; text-decoration-style: initial; text-decoration-color: initial; float: none; display: inline !important;&quot;&gt;Crewman&#39;s Room&lt;/span&gt;" style="rounded=0;whiteSpace=wrap;html=1;" vertex="1" parent="1">
          <mxGeometry x="620" y="220" width="120" height="20" as="geometry" />
        </mxCell>
        <mxCell id="Txm0cbsWEI-OotQcj3cM-12" style="edgeStyle=orthogonalEdgeStyle;rounded=0;orthogonalLoop=1;jettySize=auto;html=1;entryX=0;entryY=0.5;entryDx=0;entryDy=0;fontSize=10;" edge="1" parent="1" source="Txm0cbsWEI-OotQcj3cM-11" target="Txm0cbsWEI-OotQcj3cM-10">
          <mxGeometry relative="1" as="geometry" />
        </mxCell>
        <mxCell id="Txm0cbsWEI-OotQcj3cM-14" value="Y" style="edgeLabel;html=1;align=center;verticalAlign=middle;resizable=0;points=[];fontSize=10;" vertex="1" connectable="0" parent="Txm0cbsWEI-OotQcj3cM-12">
          <mxGeometry x="-0.2889" relative="1" as="geometry">
            <mxPoint as="offset" />
          </mxGeometry>
        </mxCell>
        <mxCell id="Txm0cbsWEI-OotQcj3cM-13" style="edgeStyle=orthogonalEdgeStyle;rounded=0;orthogonalLoop=1;jettySize=auto;html=1;entryX=0;entryY=0.5;entryDx=0;entryDy=0;fontSize=10;exitX=0.5;exitY=1;exitDx=0;exitDy=0;" edge="1" parent="1" source="Txm0cbsWEI-OotQcj3cM-11" target="Txm0cbsWEI-OotQcj3cM-8">
          <mxGeometry relative="1" as="geometry">
            <Array as="points">
              <mxPoint x="530" y="270" />
            </Array>
          </mxGeometry>
        </mxCell>
        <mxCell id="Txm0cbsWEI-OotQcj3cM-15" value="N" style="edgeLabel;html=1;align=center;verticalAlign=middle;resizable=0;points=[];fontSize=10;" vertex="1" connectable="0" parent="Txm0cbsWEI-OotQcj3cM-13">
          <mxGeometry x="0.3077" y="1" relative="1" as="geometry">
            <mxPoint as="offset" />
          </mxGeometry>
        </mxCell>
        <mxCell id="Txm0cbsWEI-OotQcj3cM-11" value="&lt;font style=&quot;font-size: 10px;&quot;&gt;1st Time?&lt;/font&gt;" style="triangle;whiteSpace=wrap;html=1;" vertex="1" parent="1">
          <mxGeometry x="500" y="190" width="60" height="80" as="geometry" />
        </mxCell>
        <mxCell id="Txm0cbsWEI-OotQcj3cM-20" style="edgeStyle=orthogonalEdgeStyle;rounded=0;orthogonalLoop=1;jettySize=auto;html=1;entryX=0;entryY=0.5;entryDx=0;entryDy=0;fontSize=10;" edge="1" parent="1" source="Txm0cbsWEI-OotQcj3cM-19" target="Txm0cbsWEI-OotQcj3cM-11">
          <mxGeometry relative="1" as="geometry" />
        </mxCell>
        <mxCell id="Txm0cbsWEI-OotQcj3cM-27" value="Cells" style="edgeLabel;html=1;align=center;verticalAlign=middle;resizable=0;points=[];fontSize=10;" vertex="1" connectable="0" parent="Txm0cbsWEI-OotQcj3cM-20">
          <mxGeometry x="-0.2022" relative="1" as="geometry">
            <mxPoint as="offset" />
          </mxGeometry>
        </mxCell>
        <mxCell id="Txm0cbsWEI-OotQcj3cM-21" style="edgeStyle=orthogonalEdgeStyle;rounded=0;orthogonalLoop=1;jettySize=auto;html=1;entryX=0.5;entryY=0;entryDx=0;entryDy=0;fontSize=10;" edge="1" parent="1" source="Txm0cbsWEI-OotQcj3cM-19" target="Txm0cbsWEI-OotQcj3cM-7">
          <mxGeometry relative="1" as="geometry" />
        </mxCell>
        <mxCell id="Txm0cbsWEI-OotQcj3cM-26" value="Staircase" style="edgeLabel;html=1;align=center;verticalAlign=middle;resizable=0;points=[];fontSize=10;" vertex="1" connectable="0" parent="Txm0cbsWEI-OotQcj3cM-21">
          <mxGeometry x="-0.2222" relative="1" as="geometry">
            <mxPoint as="offset" />
          </mxGeometry>
        </mxCell>
        <mxCell id="Txm0cbsWEI-OotQcj3cM-24" style="edgeStyle=orthogonalEdgeStyle;rounded=0;orthogonalLoop=1;jettySize=auto;html=1;entryX=1;entryY=0.5;entryDx=0;entryDy=0;fontSize=10;" edge="1" parent="1" source="Txm0cbsWEI-OotQcj3cM-19" target="Txm0cbsWEI-OotQcj3cM-22">
          <mxGeometry relative="1" as="geometry" />
        </mxCell>
        <mxCell id="Txm0cbsWEI-OotQcj3cM-25" value="Noise" style="edgeLabel;html=1;align=center;verticalAlign=middle;resizable=0;points=[];fontSize=10;" vertex="1" connectable="0" parent="Txm0cbsWEI-OotQcj3cM-24">
          <mxGeometry x="-0.514" y="-1" relative="1" as="geometry">
            <mxPoint x="-16" y="1" as="offset" />
          </mxGeometry>
        </mxCell>
        <mxCell id="Txm0cbsWEI-OotQcj3cM-19" value="" style="rhombus;whiteSpace=wrap;html=1;fontSize=10;" vertex="1" parent="1">
          <mxGeometry x="390" y="210" width="40" height="40" as="geometry" />
        </mxCell>
        <mxCell id="Txm0cbsWEI-OotQcj3cM-22" value="&lt;span style=&quot;color: rgb(0, 0, 0); font-family: Helvetica; font-size: 12px; font-style: normal; font-variant-ligatures: normal; font-variant-caps: normal; font-weight: 400; letter-spacing: normal; orphans: 2; text-align: center; text-indent: 0px; text-transform: none; widows: 2; word-spacing: 0px; -webkit-text-stroke-width: 0px; background-color: rgb(248, 249, 250); text-decoration-thickness: initial; text-decoration-style: initial; text-decoration-color: initial; float: none; display: inline !important;&quot;&gt;Poker Game&lt;/span&gt;" style="rounded=0;whiteSpace=wrap;html=1;" vertex="1" parent="1">
          <mxGeometry x="190" y="220" width="120" height="20" as="geometry" />
        </mxCell>
        <mxCell id="Txm0cbsWEI-OotQcj3cM-28" value="&lt;span style=&quot;color: rgb(0, 0, 0); font-family: Helvetica; font-size: 12px; font-style: normal; font-variant-ligatures: normal; font-variant-caps: normal; font-weight: 400; letter-spacing: normal; orphans: 2; text-align: center; text-indent: 0px; text-transform: none; widows: 2; word-spacing: 0px; -webkit-text-stroke-width: 0px; background-color: rgb(248, 249, 250); text-decoration-thickness: initial; text-decoration-style: initial; text-decoration-color: initial; float: none; display: inline !important;&quot;&gt;A wild Ytron appears&lt;/span&gt;" style="rounded=0;whiteSpace=wrap;html=1;" vertex="1" parent="1">
          <mxGeometry x="350" y="370" width="120" height="30" as="geometry" />
        </mxCell>
        <mxCell id="Txm0cbsWEI-OotQcj3cM-31" value="Disembark" style="ellipse;whiteSpace=wrap;html=1;aspect=fixed;fontSize=10;" vertex="1" parent="1">
          <mxGeometry x="360" y="530" width="80" height="80" as="geometry" />
        </mxCell>
        <mxCell id="Txm0cbsWEI-OotQcj3cM-32" value="Warehouse" style="rounded=0;whiteSpace=wrap;html=1;fontSize=10;" vertex="1" parent="1">
          <mxGeometry x="210" y="650" width="120" height="30" as="geometry" />
        </mxCell>
        <mxCell id="Txm0cbsWEI-OotQcj3cM-33" value="Visitor&#39;s Centre" style="rounded=0;whiteSpace=wrap;html=1;fontSize=10;" vertex="1" parent="1">
          <mxGeometry x="210" y="700" width="120" height="30" as="geometry" />
        </mxCell>
        <mxCell id="Txm0cbsWEI-OotQcj3cM-34" value="Meek&#39;ls Riverside Tavern" style="rounded=0;whiteSpace=wrap;html=1;fontSize=10;" vertex="1" parent="1">
          <mxGeometry x="440" y="650" width="120" height="30" as="geometry" />
        </mxCell>
        <mxCell id="Txm0cbsWEI-OotQcj3cM-35" value="Somaal&#39;s Hopak Parlor&lt;br&gt;(T&#39;Skrang Marial Arts)" style="rounded=0;whiteSpace=wrap;html=1;fontSize=10;" vertex="1" parent="1">
          <mxGeometry x="380" y="700" width="120" height="30" as="geometry" />
        </mxCell>
      </root>
    </mxGraphModel>
  </diagram>
</mxfile>
